HIERARCHY
ROOT Hips
{
  OFFSET -21.6994 31.6921 0
  CHANNELS 6 Xposition Yposition Zposition Zrotation Xrotation Yrotation
  JOINT Bip01_Pelvis
  {
    OFFSET 0 0 0
    CHANNELS 6 Xposition Yposition Zposition Zrotation Xrotation Yrotation
    JOINT BN_Tail_01
    {
      OFFSET -7.25226 -1.74978 0
      CHANNELS 6 Xposition Yposition Zposition Zrotation Xrotation Yrotation
      JOINT BN_Tail_02
      {
        OFFSET 15.788 0 0
        CHANNELS 6 Xposition Yposition Zposition Zrotation Xrotation Yrotation
        JOINT BN_Tail_03
        {
          OFFSET 16.0015 0 0
          CHANNELS 6 Xposition Yposition Zposition Zrotation Xrotation Yrotation
          JOINT BN_Tail_04
          {
            OFFSET 16.1689 0 0
            CHANNELS 6 Xposition Yposition Zposition Zrotation Xrotation Yrotation
            End Site
            {
              OFFSET 0 0 0
            }
          }
        }
      }
    }
    JOINT Bip01_Spine
    {
      OFFSET 6.38383 2.70859 0.585432
      CHANNELS 6 Xposition Yposition Zposition Zrotation Xrotation Yrotation
      JOINT BN_Mane_02
      {
        OFFSET 6.12662 8.45826 0
        CHANNELS 6 Xposition Yposition Zposition Zrotation Xrotation Yrotation
        End Site
        {
          OFFSET 0 0 0
        }
      }
      JOINT Bip01_R_Thigh
      {
        OFFSET -7.04074 -2.18223 -5.47025
        CHANNELS 6 Xposition Yposition Zposition Zrotation Xrotation Yrotation
        JOINT Bip01_R_Calf
        {
          OFFSET 13.6591 0 0
          CHANNELS 6 Xposition Yposition Zposition Zrotation Xrotation Yrotation
          JOINT Bip01_R_HorseLink
          {
            OFFSET 9.07516 0 0
            CHANNELS 6 Xposition Yposition Zposition Zrotation Xrotation Yrotation
            JOINT Bip01_R_Foot
            {
              OFFSET 8.13856 0 0
              CHANNELS 6 Xposition Yposition Zposition Zrotation Xrotation Yrotation
              JOINT Bip01_R_Toe0
              {
                OFFSET 3.79737 6.30086 0
                CHANNELS 6 Xposition Yposition Zposition Zrotation Xrotation Yrotation
                JOINT Bip01_R_Toe0Nub
                {
                  OFFSET 0.838764 0 0
                  CHANNELS 6 Xposition Yposition Zposition Zrotation Xrotation Yrotation
                  End Site
                  {
                    OFFSET 0 0 0
                  }
                }
              }
            }
          }
        }
      }
      JOINT Bip01_L_Thigh
      {
        OFFSET -6.18667 -2.14873 5.3508
        CHANNELS 6 Xposition Yposition Zposition Zrotation Xrotation Yrotation
        JOINT Bip01_L_Calf
        {
          OFFSET 13.6591 0 0
          CHANNELS 6 Xposition Yposition Zposition Zrotation Xrotation Yrotation
          JOINT Bip01_L_HorseLink
          {
            OFFSET 9.07515 0 0
            CHANNELS 6 Xposition Yposition Zposition Zrotation Xrotation Yrotation
            JOINT Bip01_L_Foot
            {
              OFFSET 8.13856 0 0
              CHANNELS 6 Xposition Yposition Zposition Zrotation Xrotation Yrotation
              JOINT Bip01_L_Toe0
              {
                OFFSET 3.79737 6.30086 0
                CHANNELS 6 Xposition Yposition Zposition Zrotation Xrotation Yrotation
                JOINT Bip01_L_Toe0Nub
                {
                  OFFSET 0.838764 0 0
                  CHANNELS 6 Xposition Yposition Zposition Zrotation Xrotation Yrotation
                  End Site
                  {
                    OFFSET 0 0 0
                  }
                }
              }
            }
          }
        }
      }
      JOINT Bip01_Spine1
      {
        OFFSET 12.1687 -0.0105438 0
        CHANNELS 6 Xposition Yposition Zposition Zrotation Xrotation Yrotation
        JOINT BN_Mane_R_01
        {
          OFFSET -0.157498 5.09008 -6.54008
          CHANNELS 6 Xposition Yposition Zposition Zrotation Xrotation Yrotation
          End Site
          {
            OFFSET 0 0 0
          }
        }
        JOINT BN_Mane_R_02
        {
          OFFSET -0.1575 5.09007 6.54
          CHANNELS 6 Xposition Yposition Zposition Zrotation Xrotation Yrotation
          End Site
          {
            OFFSET 0 0 0
          }
        }
        JOINT BN_Mane_01
        {
          OFFSET 8.29709 8.50414 0
          CHANNELS 6 Xposition Yposition Zposition Zrotation Xrotation Yrotation
          End Site
          {
            OFFSET 0 0 0
          }
        }
        JOINT Bip01_Spine2
        {
          OFFSET 13.2802 -0.0100708 1.51992e-005
          CHANNELS 6 Xposition Yposition Zposition Zrotation Xrotation Yrotation
          JOINT Bip01_Neck
          {
            OFFSET 12.4891 -6.66662 0
            CHANNELS 6 Xposition Yposition Zposition Zrotation Xrotation Yrotation
            JOINT Bip01_R_Clavicle
            {
              OFFSET -7.4542 -2.82621 -1.17874
              CHANNELS 6 Xposition Yposition Zposition Zrotation Xrotation Yrotation
              JOINT Bip01_R_UpperArm
              {
                OFFSET 13.2557 0 0
                CHANNELS 6 Xposition Yposition Zposition Zrotation Xrotation Yrotation
                JOINT Bip01_R_Forearm
                {
                  OFFSET 12.8897 0 0
                  CHANNELS 6 Xposition Yposition Zposition Zrotation Xrotation Yrotation
                  JOINT Bip01_R_Hand
                  {
                    OFFSET 11.2622 0 0
                    CHANNELS 6 Xposition Yposition Zposition Zrotation Xrotation Yrotation
                    JOINT Bip01_R_Finger0
                    {
                      OFFSET 3.98015 -0.208661 -0.0949803
                      CHANNELS 6 Xposition Yposition Zposition Zrotation Xrotation Yrotation
                      JOINT Bip01_R_Finger0Nub
                      {
                        OFFSET 6.57561 0 0
                        CHANNELS 6 Xposition Yposition Zposition Zrotation Xrotation Yrotation
                        End Site
                        {
                          OFFSET 0 0 0
                        }
                      }
                    }
                  }
                }
              }
            }
            JOINT Bip01_L_Clavicle
            {
              OFFSET -7.4541 -2.82679 1.17708
              CHANNELS 6 Xposition Yposition Zposition Zrotation Xrotation Yrotation
              JOINT Bip01_L_UpperArm
              {
                OFFSET 13.2558 0 0
                CHANNELS 6 Xposition Yposition Zposition Zrotation Xrotation Yrotation
                JOINT Bip01_L_Forearm
                {
                  OFFSET 12.8897 0 0
                  CHANNELS 6 Xposition Yposition Zposition Zrotation Xrotation Yrotation
                  JOINT Bip01_L_Hand
                  {
                    OFFSET 11.2622 0 0
                    CHANNELS 6 Xposition Yposition Zposition Zrotation Xrotation Yrotation
                    JOINT Bip01_L_Finger0
                    {
                      OFFSET 3.98014 -0.20866 0.0949764
                      CHANNELS 6 Xposition Yposition Zposition Zrotation Xrotation Yrotation
                      JOINT Bip01_L_Finger0Nub
                      {
                        OFFSET 6.57562 0 0
                        CHANNELS 6 Xposition Yposition Zposition Zrotation Xrotation Yrotation
                        End Site
                        {
                          OFFSET 0 0 0
                        }
                      }
                    }
                  }
                }
              }
            }
            JOINT Bip01_Neck1
            {
              OFFSET 4.19352 -0.00332451 0
              CHANNELS 6 Xposition Yposition Zposition Zrotation Xrotation Yrotation
              JOINT Bip01_Head
              {
                OFFSET 4.17604 0.298252 0
                CHANNELS 6 Xposition Yposition Zposition Zrotation Xrotation Yrotation
                JOINT BN_Eye_R_01
                {
                  OFFSET 6.53258 -3.90694 -2.55361
                  CHANNELS 6 Xposition Yposition Zposition Zrotation Xrotation Yrotation
                  End Site
                  {
                    OFFSET 0 0 0
                  }
                }
                JOINT BN_Eye_L_01
                {
                  OFFSET 6.5326 -3.90694 2.55371
                  CHANNELS 6 Xposition Yposition Zposition Zrotation Xrotation Yrotation
                  End Site
                  {
                    OFFSET 0 0 0
                  }
                }
                JOINT BN_Ear_R_01
                {
                  OFFSET 1.75934 -4.1584 -4.45634
                  CHANNELS 6 Xposition Yposition Zposition Zrotation Xrotation Yrotation
                  End Site
                  {
                    OFFSET 0 0 0
                  }
                }
                JOINT BN_Ear_L_01
                {
                  OFFSET 1.75933 -4.15841 4.45616
                  CHANNELS 6 Xposition Yposition Zposition Zrotation Xrotation Yrotation
                  End Site
                  {
                    OFFSET 0 0 0
                  }
                }
                JOINT BN_Beard_L_01
                {
                  OFFSET 11.2964 -1.06183 2.32054
                  CHANNELS 6 Xposition Yposition Zposition Zrotation Xrotation Yrotation
                  End Site
                  {
                    OFFSET 0 0 0
                  }
                }
                JOINT BN_Beard_R_01
                {
                  OFFSET 11.2964 -1.06182 -2.32036
                  CHANNELS 6 Xposition Yposition Zposition Zrotation Xrotation Yrotation
                  End Site
                  {
                    OFFSET 0 0 0
                  }
                }
                JOINT BN_Mouth_0
                {
                  OFFSET 1.3149 1.30001 0
                  CHANNELS 6 Xposition Yposition Zposition Zrotation Xrotation Yrotation
                  End Site
                  {
                    OFFSET 0 0 0
                  }
                }
                JOINT Bip01_HeadNub
                {
                  OFFSET 12.6869 0 0
                  CHANNELS 6 Xposition Yposition Zposition Zrotation Xrotation Yrotation
                  End Site
                  {
                    OFFSET 0 0 0
                  }
                }
              }
            }
          }
        }
      }
    }
  }
}
MOTION
Frames:	4
Frame Time:	0.0333333
-21.6994 31.7756 0 -180 -90 -90 0 1.13687e-013 0 -89.9981 -0.00174156 -83.8963 -7.25226 -1.74978 -2.38419e-007 -50.3407 5.75562 174.777 15.788 7.10543e-015 4.44089e-016 -9.10775 -2.50911 -4.20105 16.0015 0 0 -19.4031 -0.459718 -16.8671 16.1689 0 -1.90735e-006 -16.9921 -0.0404517 17.0901 6.37426 2.70859 0.680153 4.14955 0.172346 -5.00507 6.12662 8.45826 1.67638e-008 -88.9944 -0.0320129 -179.967 -7.06133 -2.25848 -5.50664 -99.7717 3.04718 172.171 13.6591 3.8147e-006 0 -47.9061 7.48363e-006 7.67604e-006 9.07516 3.55271e-015 0 45.3546 -1.34867e-006 1.39633e-006 8.13856 3.8147e-006 -9.53674e-007 -2.2987 1.21992 7.50165 3.79737 6.30086 0 89.9962 1.27537e-009 -1.2326e-009 0.838764 -2.98023e-008 0 -2.18881e-008 -3.92596e-010 4.34375e-010 -6.11372 -2.22571 5.30663 -94.2363 1.12243 179.468 13.6591 -1.90735e-006 0 -89.7591 4.20593e-008 1.00178e-005 9.07515 0 4.76837e-007 92.78 -4.85905e-007 -1.00062e-005 8.13856 -7.6294e-006 -4.76837e-007 -83.1118 -1.59905e-010 7.2182e-011 3.79737 6.30086 -8.88178e-016 89.9962 6.44809e-011 -1.71677e-010 0.838764 -1.90735e-006 4.76837e-007 -179.96 -0.001081 -0.000697 12.1687 -0.0105438 2.6077e-008 -4.09252 1.15988 -1.8029 -0.157498 5.09008 -6.54008 -92.7406 -0.022027 -167.965 -0.1575 5.09007 6.54 87.255 -0.000385989 12.0139 8.29709 8.50414 -5.96046e-008 -91.651 -0.0228119 -179.978 13.2802 -0.0100708 1.51992e-005 -8.58101 -0.0767824 -1.31391 12.4891 -6.66662 -5.55112e-017 -5.06555 -1.72835e-005 -1.60769e-006 -7.42312 -2.90593 -1.17796 -174.992 -58.1406 112.143 13.2557 -1.90735e-006 3.55271e-015 69.0088 31.6809 -113.045 12.8897 9.53674e-007 -4.44089e-016 -40.3651 -1.14641e-005 -1.08784e-005 11.2622 3.55271e-015 4.44089e-016 -149.619 84.136 138.573 3.98015 -0.208661 -0.0949803 -4.37779 -4.58039 -67.618 6.57561 1.19209e-007 0 179.96 1.7315e-005 -1.50544e-005 -7.42322 -2.90553 1.17789 -174.993 60.0137 -90.9242 13.2558 0 1.90735e-006 51.8622 -7.06183 92.9707 12.8897 3.8147e-006 -4.44089e-016 -37.7305 -1.14014e-006 -1.03366e-006 11.2622 1.77636e-015 0 -131.003 -82.9284 -126.098 3.98014 -0.20866 0.0949764 -4.37674 4.58097 25.4685 6.57562 8.88178e-016 0 -2.03946e-008 -1.51214e-007 -6.03283e-008 4.19352 -0.00332451 -2.98023e-008 -5.06555 9.91199e-006 9.40221e-007 4.17604 0.298252 2.98023e-008 47.4708 -0.296612 3.40106 6.53258 -3.90694 -2.55361 133.025 18.1401 163.594 6.5326 -3.90694 2.55371 -46.9761 18.1112 -16.4184 1.75934 -4.1584 -4.45634 24.7931 -39.7306 142.462 1.75933 -4.15841 4.45616 -155.196 -39.7317 -37.5281 11.2964 -1.06183 2.32054 151.28 -2.12724 -89.9983 11.2964 -1.06182 -2.32036 -28.7078 -2.13817 89.9962 1.3149 1.30001 5.96046e-008 -173.013 -0.0364838 -179.998 12.6869 7.6294e-006 5.96046e-008 6.98603e-007 -9.26749e-009 -1.73232e-008 
-21.6994 31.7344 -5.71868e-010 -180 -90 -90 0 1.13687e-013 0 -89.9968 -0.00299856 -83.5343 -7.25226 -1.74978 -2.38419e-007 -50.2954 5.72695 174.817 15.788 -1.42109e-014 4.44089e-016 -8.77331 -2.52838 -4.00964 16.0015 -7.10543e-015 0 -18.9935 -0.477439 -16.8653 16.1689 7.10543e-015 -1.90735e-006 -17.054 0.175288 15.4696 6.36962 2.70859 0.719284 3.62556 0.192946 -5.19162 6.12662 8.45826 1.67374e-008 -88.9944 -0.0320129 -179.967 -7.05726 -2.31886 -5.52367 -98.0413 3.11915 172.139 13.6591 3.8147e-006 -1.77636e-015 -47.2413 7.54334e-006 7.55723e-006 9.07516 0 5.32907e-015 45.1383 -1.31559e-006 1.39793e-006 8.13856 3.8147e-006 -9.53674e-007 -1.39964 1.29987 7.49206 3.79737 6.30086 8.12683e-012 89.535 1.35956e-009 -1.28782e-009 0.838764 -2.98023e-008 -3.55271e-015 -2.18881e-008 -3.92596e-010 4.34375e-010 -6.07443 -2.28224 5.28643 -95.6719 1.30663 179.79 13.6591 -1.90735e-006 -8.88178e-016 -90.3395 -5.94945e-008 1.00096e-005 9.07515 7.10543e-015 4.76837e-007 92.7687 -4.73307e-007 -1.00064e-005 8.13856 -7.6294e-006 -4.76837e-007 -80.113 0.252364 -0.0581926 3.79737 6.30086 3.1922e-011 89.7688 -0.00165653 -6.68462e-006 0.838764 -1.90735e-006 4.76837e-007 -179.96 -0.001081 -0.000697 12.1687 -0.0105438 2.60771e-008 -3.23524 1.08244 -1.92994 -0.157498 5.09008 -6.54008 -92.7406 -0.0220269 -167.965 -0.1575 5.09007 6.54 87.255 -0.000385989 12.0139 8.29709 8.50414 -6.02073e-008 -91.651 -0.0228119 -179.978 13.2802 -0.0100708 1.51992e-005 -8.52426 -0.0774996 -1.40944 12.4891 -6.66662 7.1037e-010 -5.11476 -1.74208e-005 -1.08317e-007 -7.42211 -2.90877 -1.17818 -174.935 -58.2761 111.052 13.2557 -1.90735e-006 -1.42109e-014 68.0534 31.4695 -112.313 12.8897 9.53674e-007 8.4377e-015 -42.0846 -1.78107e-005 -3.78432e-006 11.2622 1.77636e-014 -5.32907e-015 -146.351 84.1129 136.331 3.98015 -0.208661 -0.0949803 -4.37733 -4.59786 -68.7943 6.57561 1.19209e-007 0 179.96 1.7315e-005 -1.50544e-005 -7.42221 -2.90838 1.17766 -174.936 59.9732 -91.2237 13.2558 0 1.90735e-006 51.7592 -3.83643 93.0848 12.8897 3.8147e-006 -3.55271e-015 -47.4211 -9.8092e-007 -1.1834e-006 11.2622 -1.77636e-014 6.21725e-015 -128.327 -83.0004 -126.889 3.98014 -0.20866 0.0949764 -4.37788 4.57748 23.8598 6.57562 -2.66453e-015 2.66453e-015 -2.03946e-008 -1.51214e-007 -6.03283e-008 4.19352 -0.00332451 -2.98021e-008 -4.7725 -2.7056e-005 0.000443708 4.17604 0.298252 2.97972e-008 46.8577 -0.188264 3.40616 6.53258 -3.90694 -2.55361 133.025 18.1401 163.594 6.5326 -3.90694 2.55371 -46.9761 18.1112 -16.4184 1.75934 -4.1584 -4.45634 24.8007 -39.7561 142.241 1.75933 -4.15841 4.45616 -155.188 -39.7572 -37.7491 11.2964 -1.06183 2.32054 151.293 -1.92369 -90.0234 11.2964 -1.06182 -2.32036 -28.6803 -1.9113 89.9617 1.3149 1.30001 5.9673e-008 -172.902 -0.0362549 -179.998 12.6869 7.6294e-006 5.96046e-008 6.98603e-007 -9.26749e-009 -1.73232e-008 
-21.6994 31.6941 -1.13259e-009 -180 -90 -90 0 1.13687e-013 0 -89.9959 -0.00360571 -83.1867 -7.25226 -1.74978 -2.38419e-007 -50.1674 5.64551 174.928 15.788 -7.10543e-015 0 -8.37307 -2.56431 -3.79392 16.0015 0 -1.33227e-015 -18.6532 -0.528445 -16.8604 16.1689 7.10543e-015 -1.90735e-006 -17.1087 0.388472 13.8808 6.36507 2.70859 0.757654 2.91349 0.230867 -5.37773 6.12662 8.45826 1.68663e-008 -88.9944 -0.0320129 -179.967 -7.04508 -2.40474 -5.53998 -95.9206 3.11501 172.127 13.6591 3.8147e-006 -3.55271e-015 -46.1099 7.64463e-006 7.36937e-006 9.07516 1.06581e-014 0 44.3369 -1.2733e-006 1.38518e-006 8.13856 3.8147e-006 -9.53674e-007 -0.00685768 1.39442 7.46537 3.79737 6.30086 -5.12781e-011 88.3219 2.54345e-009 -6.67652e-010 0.838764 -2.98023e-008 3.55271e-015 -2.18881e-008 -3.92596e-010 4.34375e-010 -6.02716 -2.36072 5.26684 -97.1751 1.39663 -179.687 13.6591 -1.90735e-006 8.88178e-016 -90.9996 -1.76744e-007 9.9917e-006 9.07515 0 4.76837e-007 92.133 -3.45229e-007 -1.00134e-005 8.13856 -7.6294e-006 -4.76837e-007 -75.932 0.659885 -0.265806 3.79737 6.30086 6.00568e-011 89.5459 -0.00329569 -2.61245e-005 0.838764 -1.90735e-006 4.76837e-007 -179.96 -0.001081 -0.000697 12.1687 -0.0105438 2.60769e-008 -2.18258 0.987228 -2.05557 -0.157498 5.09008 -6.54008 -92.7406 -0.0220269 -167.965 -0.1575 5.09007 6.54 87.255 -0.000385989 12.0139 8.29709 8.50414 -6.083e-008 -91.651 -0.0228119 -179.978 13.2802 -0.0100708 1.51992e-005 -8.44469 -0.0891154 -1.50047 12.4891 -6.66662 1.72608e-009 -5.13556 -3.12867e-005 0.000154129 -7.42111 -2.91157 -1.17839 -174.91 -58.4322 109.83 13.2557 -1.90735e-006 -1.42109e-014 67.2772 31.7108 -111.606 12.8897 9.53674e-007 2.66454e-015 -43.3041 -1.77139e-005 -4.15737e-006 11.2622 3.55271e-015 -5.32907e-015 -143.174 84.0777 134.159 3.98015 -0.208661 -0.0949803 -4.38812 -4.61863 -70.1284 6.57561 1.19209e-007 7.99361e-015 179.96 1.7315e-005 -1.50544e-005 -7.42122 -2.91118 1.17744 -174.914 59.9399 -91.5403 13.2558 -7.10543e-015 1.90735e-006 51.7183 -1.70028 93.2071 12.8897 3.8147e-006 0 -55.1889 -8.09848e-007 -1.26976e-006 11.2622 -5.32907e-015 -4.88498e-015 -126.447 -83.0662 -127.618 3.98014 -0.20866 0.0949764 -4.37665 4.58063 22.1156 6.57562 0 -1.77636e-015 -2.03946e-008 -1.51214e-007 -6.03283e-008 4.19352 -0.00332451 -2.98018e-008 -4.51951 -7.70242e-005 0.00110074 4.17604 0.298252 2.97836e-008 46.1822 -0.0509319 3.39436 6.53258 -3.90694 -2.55361 133.025 18.1401 163.594 6.5326 -3.90694 2.55371 -46.9761 18.1112 -16.4184 1.75934 -4.1584 -4.45634 24.8081 -39.7812 142.024 1.75933 -4.15841 4.45616 -155.181 -39.7823 -37.9658 11.2964 -1.06183 2.32054 151.305 -1.72421 -90.0479 11.2964 -1.06182 -2.32036 -28.6533 -1.68896 89.9278 1.3149 1.30001 5.97312e-008 -172.793 -0.0360108 -179.998 12.6869 7.6294e-006 5.96046e-008 6.98603e-007 -9.26749e-009 -1.73232e-008 
-21.6994 31.6534 -1.69889e-009 -180 -90 -90 0 1.13687e-013 0 -89.9954 -0.00403367 -82.8498 -7.25226 -1.74978 -2.38419e-007 -49.9572 5.51113 175.11 15.788 -7.10543e-015 -1.11022e-016 -7.90896 -2.61335 -3.54734 16.0015 -3.55271e-014 -1.77636e-015 -18.3565 -0.606084 -16.8501 16.1689 1.06581e-014 -1.90735e-006 -17.1184 0.517538 11.5175 6.36048 2.70859 0.796404 2.03094 0.289984 -5.56521 6.12662 8.45826 1.71635e-008 -88.9944 -0.0320129 -179.967 -7.02477 -2.51263 -5.5566 -93.4294 3.06404 172.111 13.6591 3.8147e-006 -7.10543e-015 -44.5333 7.78461e-006 7.11489e-006 9.07516 3.55271e-015 3.55271e-015 42.9957 -0.00087006 -0.00093049 8.13856 3.8147e-006 -9.53674e-007 1.80221 1.5015 7.42866 3.79737 6.30086 -1.06768e-010 86.4549 0.0047809 0.000296186 0.838764 -2.98023e-008 1.77636e-015 -2.18881e-008 -3.92596e-010 4.34375e-010 -5.97183 -2.45761 5.24682 -98.7819 1.39254 -178.982 13.6591 -1.90735e-006 1.77636e-015 -91.7204 -3.0597e-007 9.96236e-006 9.07515 3.55271e-015 4.76837e-007 90.9099 -1.12195e-007 -1.00234e-005 8.13856 -7.6294e-006 -4.76837e-007 -70.6389 1.16555 -0.652909 3.79737 6.30086 3.47091e-011 89.3206 -0.00490737 -5.81902e-005 0.838764 -1.90735e-006 4.76837e-007 -179.96 -0.001081 -0.000697 12.1687 -0.0105438 2.60765e-008 -0.959283 0.875239 -2.17866 -0.157498 5.09008 -6.54008 -92.7406 -0.0220269 -167.965 -0.1575 5.09007 6.54 87.255 -0.000385989 12.0139 8.29709 8.50414 -6.14828e-008 -91.651 -0.0228119 -179.978 13.2802 -0.0100708 1.51992e-005 -8.33986 -0.105059 -1.58913 12.4891 -6.66662 3.08431e-009 -5.13206 -5.9283e-005 0.000465914 -7.42011 -2.91438 -1.17861 -174.917 -58.617 108.457 13.2557 -1.90735e-006 -2.4869e-014 66.6086 32.3629 -110.873 12.8897 9.53674e-007 1.77636e-015 -44.1293 -1.06817e-005 -1.15918e-005 11.2622 7.10543e-015 -5.77316e-015 -140.491 84.0582 132.454 3.98015 -0.208661 -0.0949803 -4.41268 -4.64257 -71.6348 6.57561 1.19209e-007 -7.54952e-015 179.96 1.7315e-005 -1.50543e-005 -7.42023 -2.91401 1.17721 -174.924 59.9071 -91.8756 13.2558 -2.13163e-014 1.90735e-006 51.7243 -0.284455 93.3482 12.8897 3.8147e-006 2.22045e-015 -61.9256 -6.28204e-007 -1.31724e-006 11.2622 0 4.44089e-016 -125.001 -83.1255 -128.37 3.98014 -0.20866 0.0949764 -4.37903 4.57823 20.2099 6.57562 0 -6.21725e-015 -2.03946e-008 -1.51214e-007 -6.03283e-008 4.19352 -0.00332451 -2.98014e-008 -4.29203 -0.000388814 0.00531363 4.17604 0.298252 2.97567e-008 45.4404 0.106017 3.36835 6.53258 -3.90694 -2.55361 133.025 18.1401 163.594 6.5326 -3.90694 2.55371 -46.9761 18.1112 -16.4184 1.75934 -4.1584 -4.45634 24.8154 -39.8065 141.806 1.75933 -4.15841 4.45616 -155.174 -39.8076 -38.1847 11.2964 -1.06183 2.32054 151.317 -1.52232 -90.0728 11.2964 -1.06182 -2.32036 -28.626 -1.46448 89.8935 1.3149 1.30001 5.97717e-008 -172.684 -0.0357514 -179.998 12.6869 7.6294e-006 5.96046e-008 6.98603e-007 -9.26749e-009 -1.73232e-008 
